<svg width="275" height="48" viewBox="0 0 275 48" fill="none" xmlns="http://www.w3.org/2000/svg">
<path d="M56.4026 41V11.84H63.3866C65.1386 11.84 66.5186 12.164 67.5266 12.812C68.5346 13.46 69.2426 14.36 69.6506 15.512C70.0826 16.664 70.2986 18.02 70.2986 19.58C70.2986 20.948 70.0706 22.22 69.6146 23.396C69.1826 24.548 68.4506 25.472 67.4186 26.168C66.4106 26.864 65.0786 27.212 63.4226 27.212H59.1386V41H56.4026ZM59.1386 25.16H62.6306C63.8066 25.16 64.7546 24.992 65.4746 24.656C66.2186 24.296 66.7586 23.708 67.0946 22.892C67.4306 22.076 67.5986 20.972 67.5986 19.58C67.5986 18.092 67.4546 16.94 67.1666 16.124C66.8786 15.284 66.3746 14.708 65.6546 14.396C64.9586 14.06 63.9626 13.892 62.6666 13.892H59.1386V25.16ZM73.2643 41L79.4203 11.84H82.3003L88.4923 41H85.7923L84.3523 33.188H77.4043L75.9283 41H73.2643ZM77.8003 31.208H83.9923L80.8963 15.476L77.8003 31.208ZM94.5246 41V11.84H101.113C102.937 11.84 104.365 12.14 105.397 12.74C106.453 13.316 107.209 14.168 107.665 15.296C108.121 16.4 108.349 17.72 108.349 19.256C108.349 20.336 108.229 21.356 107.989 22.316C107.749 23.276 107.341 24.092 106.765 24.764C106.189 25.436 105.373 25.88 104.317 26.096L108.781 41H106.117L101.833 26.672H97.2606V41H94.5246ZM97.2606 24.656H100.969C102.193 24.656 103.141 24.452 103.813 24.044C104.485 23.636 104.965 23.036 105.253 22.244C105.541 21.452 105.685 20.456 105.685 19.256C105.685 17.456 105.373 16.112 104.749 15.224C104.125 14.336 102.889 13.892 101.041 13.892H97.2606V24.656ZM115.466 41V11.84H122.054C123.878 11.84 125.306 12.14 126.338 12.74C127.394 13.316 128.15 14.168 128.606 15.296C129.062 16.4 129.29 17.72 129.29 19.256C129.29 20.336 129.17 21.356 128.93 22.316C128.69 23.276 128.282 24.092 127.706 24.764C127.13 25.436 126.314 25.88 125.258 26.096L129.722 41H127.058L122.774 26.672H118.202V41H115.466ZM118.202 24.656H121.91C123.134 24.656 124.082 24.452 124.754 24.044C125.426 23.636 125.906 23.036 126.194 22.244C126.482 21.452 126.626 20.456 126.626 19.256C126.626 17.456 126.314 16.112 125.69 15.224C125.066 14.336 123.83 13.892 121.982 13.892H118.202V24.656ZM143.32 41.36C141.376 41.36 139.852 40.988 138.748 40.244C137.668 39.476 136.9 38.42 136.444 37.076C136.012 35.708 135.796 34.148 135.796 32.396V20.3C135.796 18.524 136.024 16.988 136.48 15.692C136.96 14.372 137.74 13.352 138.82 12.632C139.924 11.912 141.424 11.552 143.32 11.552C145.192 11.552 146.668 11.912 147.748 12.632C148.852 13.352 149.632 14.372 150.088 15.692C150.544 16.988 150.772 18.524 150.772 20.3V32.432C150.772 34.184 150.544 35.732 150.088 37.076C149.656 38.396 148.9 39.44 147.82 40.208C146.74 40.976 145.24 41.36 143.32 41.36ZM143.32 39.164C144.592 39.164 145.564 38.912 146.236 38.408C146.908 37.88 147.364 37.16 147.604 36.248C147.868 35.312 148 34.232 148 33.008V19.796C148 18.572 147.868 17.504 147.604 16.592C147.364 15.68 146.908 14.984 146.236 14.504C145.564 14 144.592 13.748 143.32 13.748C142.024 13.748 141.028 14 140.332 14.504C139.66 14.984 139.192 15.68 138.928 16.592C138.688 17.504 138.568 18.572 138.568 19.796V33.008C138.568 34.232 138.688 35.312 138.928 36.248C139.192 37.16 139.66 37.88 140.332 38.408C141.028 38.912 142.024 39.164 143.32 39.164ZM161.442 41V13.964H155.934V11.84H169.542V13.964H164.178V41H161.442Z" fill="#060504"/>
<path d="M178.124 41L178.628 11.84H184.136L188.276 32.036L192.596 11.84H197.924L198.464 41H194.504L194.072 20.732L189.932 41H186.728L182.516 20.66L182.12 41H178.124ZM205.29 41V11.84H217.53V15.584H210.618V23.972H216.054V27.68H210.618V37.328H217.602V41H205.29ZM223.209 41V11.84H230.085C232.461 11.84 234.309 12.164 235.629 12.812C236.973 13.46 237.921 14.456 238.473 15.8C239.049 17.144 239.337 18.848 239.337 20.912V31.568C239.337 33.68 239.049 35.444 238.473 36.86C237.921 38.252 236.985 39.296 235.665 39.992C234.369 40.664 232.581 41 230.301 41H223.209ZM228.537 37.292H230.157C231.381 37.292 232.257 37.076 232.785 36.644C233.313 36.212 233.637 35.588 233.757 34.772C233.877 33.932 233.937 32.912 233.937 31.712V20.552C233.937 19.376 233.853 18.428 233.685 17.708C233.517 16.988 233.169 16.46 232.641 16.124C232.113 15.788 231.261 15.62 230.085 15.62H228.537V37.292ZM245.912 41V11.84H251.168V41H245.912ZM256.726 41L262.558 11.84H268.246L274.078 41H269.146L267.994 34.268H262.918L261.73 41H256.726ZM263.458 30.884H267.418L265.438 18.644L263.458 30.884Z" fill="#9DBEA8"/>
<mask id="mask0_925_94" style="mask-type:alpha" maskUnits="userSpaceOnUse" x="0" y="0" width="49" height="48">
<path d="M24.4233 48C37.9119 48 48.8466 37.2548 48.8466 24C48.8466 10.7452 37.9119 0 24.4233 0C10.9347 0 0 10.7452 0 24C0 37.2548 10.9347 48 24.4233 48Z" fill="#E7816D"/>
</mask>
<g mask="url(#mask0_925_94)">
<path d="M11.6249 6.11928C9.81117 7.06921 8.84414 7.68442 7.16746 8.8638C5.24672 10.5245 4.41435 11.6083 3.88994 13.6994C3.23444 16.7053 3.73576 18.4269 4.93875 21.1488C5.86695 22.7626 6.49385 23.5689 7.82296 24.8081C10.1161 26.6581 11.331 26.3894 13.1981 20.3646C15.851 21.9503 17.4842 22.278 20.6708 21.8022C23.8326 19.9776 25.6099 17.8807 27.1181 13.6994C27.6519 12.2193 28.152 10.4781 28.668 8.39533C25.3924 15.8813 23.1696 17.6731 18.7043 17.7508C13.1354 17.3152 11.1614 15.8608 10.5761 10.1707C10.633 8.97316 10.8905 7.69995 11.6249 6.11928Z" fill="#060504"/>
<path fill-rule="evenodd" clip-rule="evenodd" d="M18.9337 9.64796C19.6997 9.6888 20.291 10.222 20.3809 11.0493C20.467 11.8418 20.0189 12.7233 18.9337 12.7846C17.8485 12.8458 17.2549 12.2063 17.2622 11.2816C17.2695 10.3569 18.0536 9.60104 18.9337 9.64796Z" fill="#060504"/>
<path d="M23.8172 48.594C26.5977 49.7541 28.1428 50.2821 30.8967 51.2078V51.5999L38.7627 51.5198C36.6162 47.2955 35.2565 45.0679 32.3388 41.5366C29.7266 38.7864 28.291 37.2323 26.3081 34.2179C25.6789 31.3435 25.4372 29.7648 26.177 27.2913C27.2724 24.6971 28.1143 23.6007 30.6345 23.2398C31.7914 21.0658 31.804 19.6457 30.5034 16.7053C29.2973 14.7572 28.5415 14.1954 27.1181 13.6994C25.6099 17.8807 23.8326 19.9776 20.6708 21.8022L23.0306 46.895C23.2344 47.9648 23.4022 48.354 23.8172 48.594Z" fill="#E0EBE4"/>
<path fill-rule="evenodd" clip-rule="evenodd" d="M18.311 7.68758C14.9294 8.19072 13.3806 8.78721 10.5761 10.1707C11.1614 15.8608 13.1354 17.3152 18.7043 17.7508C23.1696 17.6731 25.3924 15.8813 28.668 8.39533C24.7803 7.43898 22.5467 7.13617 18.311 7.68758ZM21.0641 11.2163C21.0307 10.0627 20.1585 9.07372 18.9337 9.06568C17.6686 9.05738 16.6183 9.97531 16.6067 11.2816C16.5951 12.5879 17.6577 13.4562 18.9337 13.438C20.1917 13.4201 21.0976 12.3698 21.0641 11.2163Z" fill="#E0EBE4"/>
<path d="M43.7445 51.4692C44.124 47.0779 44.2627 44.6162 44.4 40.2297C44.327 34.7479 43.8114 31.6876 41.9091 26.2457C39.6983 20.13 37.6664 17.1593 33.1254 12.3925C31.441 10.711 30.0469 9.45823 28.668 8.39533C28.152 10.4781 27.6519 12.2193 27.1181 13.6994C28.5415 14.1954 29.2973 14.7572 30.5034 16.7053C31.804 19.6457 31.7914 21.0658 30.6345 23.2398C28.1143 23.6007 27.2724 24.6971 26.177 27.2913C25.4372 29.7648 25.6789 31.3435 26.3081 34.2179C28.291 37.2323 29.7266 38.7864 32.3388 41.5366C35.2565 45.0679 36.6162 47.2955 38.7627 51.5198L43.7445 51.4692Z" fill="#9DBEA8"/>
<path d="M22.5062 4.55099C21.9818 4.28959 19.1926 3.41189 17 3.63615C14.6985 3.87154 13.2498 4.73095 11.6249 6.11928C10.8905 7.69995 10.633 8.97316 10.5761 10.1707C13.3806 8.78721 14.9294 8.19072 18.311 7.68758C22.5467 7.13617 24.7803 7.43898 28.668 8.39533C26.8906 6.95328 23.0306 4.81239 22.5062 4.55099Z" fill="#9DBEA8"/>
</g>
</svg>
