<svg width="50" height="50" viewBox="0 0 50 50" fill="none" xmlns="http://www.w3.org/2000/svg">
<mask id="mask0_918_184" style="mask-type:alpha" maskUnits="userSpaceOnUse" x="0" y="0" width="50" height="50">
<path d="M25 49.1334C38.8071 49.1334 50 38.1345 50 24.5667C50 10.9989 38.8071 0 25 0C11.1929 0 0 10.9989 0 24.5667C0 38.1345 11.1929 49.1334 25 49.1334Z" fill="#E7816D"/>
</mask>
<g mask="url(#mask0_918_184)">
<path d="M11.8994 6.26398C10.0429 7.23634 9.05299 7.86608 7.33672 9.07331C5.37063 10.7732 4.5186 11.8826 3.98181 14.0231C3.31082 17.1 3.82398 18.8622 5.05538 21.6484C6.0055 23.3003 6.6472 24.1256 8.0077 25.3941C10.355 27.2878 11.5985 27.0127 13.5097 20.8457C16.2253 22.4688 17.897 22.8042 21.1589 22.3173C24.3954 20.4495 26.2146 18.3032 27.7584 14.0231C28.3049 12.5081 28.8168 10.7257 29.3449 8.59378C25.9921 16.2566 23.7168 18.0906 19.146 18.1702C13.4456 17.7243 11.425 16.2355 10.8258 10.4111C10.8841 9.18525 11.1476 7.88197 11.8994 6.26398Z" fill="#060504" fill-opacity="0.75"/>
<path fill-rule="evenodd" clip-rule="evenodd" d="M19.3808 9.87598C20.1649 9.91779 20.7702 10.4636 20.8622 11.3104C20.9503 12.1217 20.4917 13.0239 19.3808 13.0866C18.27 13.1494 17.6624 12.4947 17.6698 11.5482C17.6773 10.6017 18.4799 9.82795 19.3808 9.87598Z" fill="#060504" fill-opacity="0.75"/>
<path d="M24.3797 49.7416C27.2257 50.9292 28.8074 51.4696 31.6263 52.4172V52.8185L39.678 52.7366C37.4809 48.4125 36.0891 46.1323 33.1024 42.5176C30.4285 39.7025 28.9591 38.1117 26.9294 35.0261C26.2853 32.0838 26.0379 30.4678 26.7952 27.9359C27.9164 25.2805 28.7782 24.1582 31.3579 23.7888C32.5421 21.5634 32.555 20.1098 31.2237 17.0999C29.9891 15.1059 29.2155 14.5308 27.7584 14.0231C26.2146 18.3032 24.3954 20.4495 21.1589 22.3173L23.5745 48.0025C23.783 49.0976 23.9548 49.496 24.3797 49.7416Z" fill="#E0EBE4"/>
<path fill-rule="evenodd" clip-rule="evenodd" d="M18.7434 7.86931C15.282 8.38433 13.6965 8.99491 10.8258 10.4111C11.425 16.2355 13.4456 17.7243 19.146 18.1702C23.7168 18.0906 25.9921 16.2566 29.3449 8.59378C25.3654 7.61484 23.0791 7.30488 18.7434 7.86931ZM21.5615 11.4813C21.5273 10.3005 20.6345 9.28818 19.3808 9.27995C18.0858 9.27145 17.0107 10.2111 16.9989 11.5482C16.987 12.8853 18.0747 13.7741 19.3808 13.7555C20.6685 13.7372 21.5958 12.6621 21.5615 11.4813Z" fill="#E0EBE4"/>
<path d="M44.7775 52.6847C45.1659 48.1897 45.3079 45.67 45.4485 41.1799C45.3737 35.5686 44.846 32.4361 42.8988 26.8657C40.6357 20.6056 38.5558 17.5646 33.9076 12.6853C32.1834 10.9642 30.7564 9.68177 29.3449 8.59378C28.8168 10.7257 28.3049 12.5081 27.7584 14.0231C29.2155 14.5308 29.9891 15.1059 31.2237 17.0999C32.555 20.1098 32.5421 21.5634 31.3579 23.7888C28.7782 24.1582 27.9164 25.2805 26.7952 27.9359C26.0379 30.4678 26.2853 32.0838 26.9294 35.0261C28.9591 38.1117 30.4285 39.7025 33.1024 42.5176C36.0891 46.1323 37.4809 48.4125 39.678 52.7366L44.7775 52.6847Z" fill="#9DBEA8"/>
<path d="M23.0377 4.65865C22.5009 4.39108 19.6458 3.49266 17.4014 3.72221C15.0456 3.96317 13.5627 4.84286 11.8994 6.26398C11.1476 7.88197 10.8841 9.18525 10.8258 10.4111C13.6965 8.99491 15.282 8.38433 18.7434 7.86931C23.0791 7.30488 25.3654 7.61484 29.3449 8.59378C27.5256 7.11767 23.5745 4.92622 23.0377 4.65865Z" fill="#9DBEA8"/>
</g>
</svg>
