<svg width="284" height="59" viewBox="0 0 284 59" fill="none" xmlns="http://www.w3.org/2000/svg">
<path d="M78.36 57L75.72 40.8H77.6L79.34 52.44L81.52 40.86H83.12L85.32 52.5L87.02 40.8H88.86L86.26 57H84.62L82.36 45L80.08 57H78.36ZM105.85 57V40.8H112.13V42.48H108.11V47.84H111.37V49.44H108.11V55.38H112.17V57H105.85ZM128.994 57V40.8H132.514C133.714 40.8 134.661 40.9867 135.354 41.36C136.061 41.72 136.561 42.2667 136.854 43C137.161 43.7333 137.314 44.6467 137.314 45.74V51.7C137.314 52.8467 137.161 53.8133 136.854 54.6C136.561 55.3867 136.074 55.9867 135.394 56.4C134.728 56.8 133.828 57 132.694 57H128.994ZM131.254 55.38H132.534C133.361 55.38 133.948 55.22 134.294 54.9C134.641 54.58 134.848 54.1133 134.914 53.5C134.994 52.8867 135.034 52.1467 135.034 51.28V46.02C135.034 45.18 134.981 44.5 134.874 43.98C134.768 43.46 134.534 43.08 134.174 42.84C133.814 42.6 133.248 42.48 132.474 42.48H131.254V55.38ZM154.541 57V40.8H158.061C159.261 40.8 160.208 40.9867 160.901 41.36C161.608 41.72 162.108 42.2667 162.401 43C162.708 43.7333 162.861 44.6467 162.861 45.74V51.7C162.861 52.8467 162.708 53.8133 162.401 54.6C162.108 55.3867 161.621 55.9867 160.941 56.4C160.275 56.8 159.375 57 158.241 57H154.541ZM156.801 55.38H158.081C158.908 55.38 159.495 55.22 159.841 54.9C160.188 54.58 160.395 54.1133 160.461 53.5C160.541 52.8867 160.581 52.1467 160.581 51.28V46.02C160.581 45.18 160.528 44.5 160.421 43.98C160.315 43.46 160.081 43.08 159.721 42.84C159.361 42.6 158.795 42.48 158.021 42.48H156.801V55.38ZM180.208 57V40.8H182.428V57H180.208ZM200.049 57V40.8H201.589L206.189 51.56V40.8H208.069V57H206.629L201.969 45.94V57H200.049ZM229.475 57.2C228.462 57.2 227.649 56.9867 227.035 56.56C226.435 56.12 225.995 55.4867 225.715 54.66C225.449 53.8333 225.315 52.84 225.315 51.68V46.26C225.315 45.0733 225.435 44.0667 225.675 43.24C225.929 42.4 226.369 41.76 226.995 41.32C227.635 40.88 228.522 40.66 229.655 40.66C230.669 40.66 231.482 40.8333 232.095 41.18C232.722 41.5133 233.175 42.0333 233.455 42.74C233.735 43.4333 233.875 44.3133 233.875 45.38V45.98H231.755V45.48C231.755 44.7733 231.709 44.2 231.615 43.76C231.522 43.3067 231.329 42.9733 231.035 42.76C230.755 42.5333 230.309 42.42 229.695 42.42C229.029 42.42 228.542 42.5733 228.235 42.88C227.942 43.1867 227.755 43.6067 227.675 44.14C227.609 44.66 227.575 45.2533 227.575 45.92V51.92C227.575 52.6933 227.629 53.34 227.735 53.86C227.855 54.38 228.075 54.7667 228.395 55.02C228.715 55.2733 229.169 55.4 229.755 55.4C230.342 55.4 230.795 55.26 231.115 54.98C231.435 54.7 231.655 54.2867 231.775 53.74C231.895 53.1933 231.955 52.5133 231.955 51.7V50.58H229.895V48.98H233.995V57H232.575L232.355 55.14C232.142 55.74 231.809 56.2333 231.355 56.62C230.902 57.0067 230.275 57.2 229.475 57.2ZM255.139 57.18C254.205 57.18 253.425 56.98 252.799 56.58C252.185 56.18 251.719 55.6267 251.399 54.92C251.079 54.2133 250.892 53.3933 250.839 52.46L252.839 51.92C252.879 52.4933 252.965 53.0467 253.099 53.58C253.245 54.1133 253.479 54.5533 253.799 54.9C254.119 55.2333 254.565 55.4 255.139 55.4C255.725 55.4 256.165 55.24 256.459 54.92C256.765 54.5867 256.919 54.1133 256.919 53.5C256.919 52.7667 256.752 52.18 256.419 51.74C256.085 51.2867 255.665 50.8333 255.159 50.38L252.439 47.98C251.905 47.5133 251.512 47.0067 251.259 46.46C251.005 45.9 250.879 45.2133 250.879 44.4C250.879 43.2133 251.219 42.2933 251.899 41.64C252.579 40.9867 253.505 40.66 254.679 40.66C255.319 40.66 255.879 40.7467 256.359 40.92C256.852 41.08 257.259 41.3333 257.579 41.68C257.912 42.0267 258.172 42.4667 258.359 43C258.559 43.52 258.692 44.1333 258.759 44.84L256.839 45.36C256.799 44.8267 256.719 44.34 256.599 43.9C256.479 43.4467 256.265 43.0867 255.959 42.82C255.665 42.54 255.239 42.4 254.679 42.4C254.119 42.4 253.679 42.5533 253.359 42.86C253.052 43.1533 252.899 43.5933 252.899 44.18C252.899 44.6733 252.979 45.08 253.139 45.4C253.312 45.72 253.585 46.0467 253.959 46.38L256.699 48.78C257.312 49.3133 257.852 49.9533 258.319 50.7C258.785 51.4333 259.019 52.3067 259.019 53.32C259.019 54.12 258.852 54.8133 258.519 55.4C258.185 55.9733 257.725 56.4133 257.139 56.72C256.565 57.0267 255.899 57.18 255.139 57.18Z" fill="#AD4368"/>
<path d="M62.556 34V4.84H69.54C71.292 4.84 72.672 5.164 73.68 5.812C74.688 6.46 75.396 7.36 75.804 8.512C76.236 9.664 76.452 11.02 76.452 12.58C76.452 13.948 76.224 15.22 75.768 16.396C75.336 17.548 74.604 18.472 73.572 19.168C72.564 19.864 71.232 20.212 69.576 20.212H65.292V34H62.556ZM65.292 18.16H68.784C69.96 18.16 70.908 17.992 71.628 17.656C72.372 17.296 72.912 16.708 73.248 15.892C73.584 15.076 73.752 13.972 73.752 12.58C73.752 11.092 73.608 9.94 73.32 9.124C73.032 8.284 72.528 7.708 71.808 7.396C71.112 7.06 70.116 6.892 68.82 6.892H65.292V18.16ZM79.4178 34L85.5738 4.84H88.4538L94.6458 34H91.9458L90.5058 26.188H83.5578L82.0818 34H79.4178ZM83.9538 24.208H90.1458L87.0498 8.476L83.9538 24.208ZM100.678 34V4.84H107.266C109.09 4.84 110.518 5.14 111.55 5.74C112.606 6.316 113.362 7.168 113.818 8.296C114.274 9.4 114.502 10.72 114.502 12.256C114.502 13.336 114.382 14.356 114.142 15.316C113.902 16.276 113.494 17.092 112.918 17.764C112.342 18.436 111.526 18.88 110.47 19.096L114.934 34H112.27L107.986 19.672H103.414V34H100.678ZM103.414 17.656H107.122C108.346 17.656 109.294 17.452 109.966 17.044C110.638 16.636 111.118 16.036 111.406 15.244C111.694 14.452 111.838 13.456 111.838 12.256C111.838 10.456 111.526 9.112 110.902 8.224C110.278 7.336 109.042 6.892 107.194 6.892H103.414V17.656ZM121.62 34V4.84H128.208C130.032 4.84 131.46 5.14 132.492 5.74C133.548 6.316 134.304 7.168 134.76 8.296C135.216 9.4 135.444 10.72 135.444 12.256C135.444 13.336 135.324 14.356 135.084 15.316C134.844 16.276 134.436 17.092 133.86 17.764C133.284 18.436 132.468 18.88 131.412 19.096L135.876 34H133.212L128.928 19.672H124.356V34H121.62ZM124.356 17.656H128.064C129.288 17.656 130.236 17.452 130.908 17.044C131.58 16.636 132.06 16.036 132.348 15.244C132.636 14.452 132.78 13.456 132.78 12.256C132.78 10.456 132.468 9.112 131.844 8.224C131.22 7.336 129.984 6.892 128.136 6.892H124.356V17.656ZM149.474 34.36C147.53 34.36 146.006 33.988 144.902 33.244C143.822 32.476 143.054 31.42 142.598 30.076C142.166 28.708 141.95 27.148 141.95 25.396V13.3C141.95 11.524 142.178 9.988 142.634 8.692C143.114 7.372 143.894 6.352 144.974 5.632C146.078 4.912 147.578 4.552 149.474 4.552C151.346 4.552 152.822 4.912 153.902 5.632C155.006 6.352 155.786 7.372 156.242 8.692C156.698 9.988 156.926 11.524 156.926 13.3V25.432C156.926 27.184 156.698 28.732 156.242 30.076C155.81 31.396 155.054 32.44 153.974 33.208C152.894 33.976 151.394 34.36 149.474 34.36ZM149.474 32.164C150.746 32.164 151.718 31.912 152.39 31.408C153.062 30.88 153.518 30.16 153.758 29.248C154.022 28.312 154.154 27.232 154.154 26.008V12.796C154.154 11.572 154.022 10.504 153.758 9.592C153.518 8.68 153.062 7.984 152.39 7.504C151.718 7 150.746 6.748 149.474 6.748C148.178 6.748 147.182 7 146.486 7.504C145.814 7.984 145.346 8.68 145.082 9.592C144.842 10.504 144.722 11.572 144.722 12.796V26.008C144.722 27.232 144.842 28.312 145.082 29.248C145.346 30.16 145.814 30.88 146.486 31.408C147.182 31.912 148.178 32.164 149.474 32.164ZM167.596 34V6.964H162.088V4.84H175.696V6.964H170.332V34H167.596Z" fill="#A23F61"/>
<path d="M187.124 34L187.628 4.84H193.136L197.276 25.036L201.596 4.84H206.924L207.464 34H203.504L203.072 13.732L198.932 34H195.728L191.516 13.66L191.12 34H187.124ZM214.29 34V4.84H226.53V8.584H219.618V16.972H225.054V20.68H219.618V30.328H226.602V34H214.29ZM232.209 34V4.84H239.085C241.461 4.84 243.309 5.164 244.629 5.812C245.973 6.46 246.921 7.456 247.473 8.8C248.049 10.144 248.337 11.848 248.337 13.912V24.568C248.337 26.68 248.049 28.444 247.473 29.86C246.921 31.252 245.985 32.296 244.665 32.992C243.369 33.664 241.581 34 239.301 34H232.209ZM237.537 30.292H239.157C240.381 30.292 241.257 30.076 241.785 29.644C242.313 29.212 242.637 28.588 242.757 27.772C242.877 26.932 242.937 25.912 242.937 24.712V13.552C242.937 12.376 242.853 11.428 242.685 10.708C242.517 9.988 242.169 9.46 241.641 9.124C241.113 8.788 240.261 8.62 239.085 8.62H237.537V30.292ZM254.912 34V4.84H260.168V34H254.912ZM265.726 34L271.558 4.84H277.246L283.078 34H278.146L276.994 27.268H271.918L270.73 34H265.726ZM272.458 23.884H276.418L274.438 11.644L272.458 23.884Z" fill="#CFECE2"/>
<mask id="mask0_1_29" style="mask-type:alpha" maskUnits="userSpaceOnUse" x="0" y="0" width="60" height="59">
<path d="M30 58.9601C46.5686 58.9601 60 45.7615 60 29.4801C60 13.1987 46.5686 0 30 0C13.4315 0 0 13.1987 0 29.4801C0 45.7615 13.4315 58.9601 30 58.9601Z" fill="#E7816D"/>
</mask>
<g mask="url(#mask0_1_29)">
<path d="M14.2793 7.51663C12.0515 8.68346 10.8636 9.43914 8.80408 10.8878C6.44477 12.9277 5.42233 14.259 4.77819 16.8275C3.97301 20.5198 4.5888 22.6345 6.06647 25.9779C7.20662 27.9602 7.97666 28.9506 9.60926 30.4728C12.426 32.7452 13.9183 32.4151 16.2117 25.0147C19.4704 26.9624 21.4765 27.3649 25.3908 26.7806C29.2745 24.5393 31.4576 21.9637 33.3101 16.8275C33.9659 15.0095 34.5802 12.8707 35.2139 10.3124C31.1905 19.5077 28.4601 21.7086 22.9752 21.8041C16.1347 21.269 13.71 19.4824 12.991 12.4932C13.0609 11.0221 13.3772 9.45821 14.2793 7.51663Z" fill="#060504"/>
<path fill-rule="evenodd" clip-rule="evenodd" d="M23.257 11.851C24.1979 11.9012 24.9242 12.5561 25.0346 13.5723C25.1404 14.5458 24.59 15.6285 23.257 15.7038C21.924 15.7791 21.1949 14.9935 21.2038 13.8577C21.2128 12.7219 22.176 11.7934 23.257 11.851Z" fill="#060504"/>
<path d="M29.2556 59.6898C32.6709 61.1149 34.5689 61.7633 37.9515 62.9004V63.382L47.6137 63.2838C44.9771 58.0949 43.3069 55.3587 39.7229 51.021C36.5142 47.6428 34.7509 45.7339 32.3153 42.0312C31.5424 38.5004 31.2455 36.5612 32.1542 33.5229C33.4997 30.3365 34.5338 28.9897 37.6295 28.5464C39.0506 25.876 39.0661 24.1316 37.4684 20.5198C35.9869 18.1269 35.0586 17.4369 33.3101 16.8275C31.4576 21.9637 29.2745 24.5393 25.3908 26.7806L28.2894 57.6029C28.5396 58.917 28.7457 59.3951 29.2556 59.6898Z" fill="#CFECE2"/>
<path fill-rule="evenodd" clip-rule="evenodd" d="M22.4921 9.44302C18.3384 10.061 16.4359 10.7937 12.991 12.4932C13.71 19.4824 16.1347 21.269 22.9752 21.8041C28.4601 21.7086 31.1905 19.5077 35.2139 10.3124C30.4385 9.13766 27.695 8.76571 22.4921 9.44302ZM25.8739 13.7774C25.8328 12.3605 24.7614 11.1457 23.257 11.1358C21.703 11.1256 20.4129 12.2531 20.3986 13.8577C20.3844 15.4623 21.6896 16.5288 23.257 16.5065C24.8022 16.4845 25.9149 15.1944 25.8739 13.7774Z" fill="#CFECE2"/>
<path d="M53.733 63.2215C54.1992 57.8275 54.3695 54.8038 54.5382 49.4157C54.4484 42.6822 53.8152 38.9231 51.4785 32.2387C48.7629 24.7265 46.267 21.0774 40.6891 15.2222C38.6201 13.1569 36.9077 11.618 35.2139 10.3124C34.5802 12.8707 33.9659 15.0095 33.3101 16.8275C35.0586 17.4369 35.9869 18.1269 37.4684 20.5198C39.0661 24.1316 39.0506 25.876 37.6295 28.5464C34.5338 28.9897 33.4997 30.3365 32.1542 33.5229C31.2455 36.5612 31.5424 38.5004 32.3153 42.0312C34.7509 45.7339 36.5142 47.6428 39.7229 51.021C43.3069 55.3587 44.9771 58.0949 47.6137 63.2838L53.733 63.2215Z" fill="#AD4368" fill-opacity="0.4"/>
<path d="M27.6453 5.59023C27.0011 5.26915 23.575 4.19104 20.8817 4.4665C18.0548 4.75565 16.2752 5.81128 14.2793 7.51663C13.3772 9.45821 13.0609 11.0221 12.991 12.4932C16.4359 10.7937 18.3384 10.061 22.4921 9.44302C27.695 8.76571 30.4385 9.13766 35.2139 10.3124C33.0307 8.54105 28.2894 5.91132 27.6453 5.59023Z" fill="#AD4368" fill-opacity="0.4"/>
</g>
</svg>
